<?xml version="1.0" encoding="iso-8859-1"?>
<!-- Generator: Adobe Illustrator 18.1.1, SVG Export Plug-In . SVG Version: 6.00 Build 0)  -->
<svg version="1.1" id="Capa_1" xmlns="http://www.w3.org/2000/svg" xmlns:xlink="http://www.w3.org/1999/xlink" x="0px" y="0px"
	 viewBox="0 0 20.236 20.236" style="enable-background:new 0 0 20.236 20.236;" xml:space="preserve">
<g>
	<path style="fill:#030104;" d="M19.251,12.798V0c0,0-12.179,0-13.412,0C4.603,0,4.487,1.195,4.487,1.195L0.98,20.236
		c0,0,16.46-5.704,17.424-6.091C19.367,13.76,19.251,12.798,19.251,12.798z M11.889,12.989c0,0-1.695,0.232-3.2-0.925V2.467h2.084
		v3.431c0,0-0.156,0.309,0.307,0c0,0,0.616-0.809,1.736-0.694c0,0,2.312,0,2.273,3.354C15.089,8.557,15.666,12.759,11.889,12.989z
		 M11.173,7.281v3.661v0.233c0,0,2.006,0.656,2.044-1.023c0.037-1.676,0-2.138,0-2.138S13.294,6.51,11.173,7.281z"/>
</g>
<g>
</g>
<g>
</g>
<g>
</g>
<g>
</g>
<g>
</g>
<g>
</g>
<g>
</g>
<g>
</g>
<g>
</g>
<g>
</g>
<g>
</g>
<g>
</g>
<g>
</g>
<g>
</g>
<g>
</g>
</svg>
