<svg width="258" height="63" viewBox="0 0 258 63" fill="none" xmlns="http://www.w3.org/2000/svg">
<path d="M47.8678 43.5857V0C47.8678 0 21.5771 0 17.8225 0C14.0587 0 13.7055 3.67696 13.7055 3.67696L3.02637 62.2653C3.02637 62.2653 44.9323 44.7765 47.8678 43.5857ZM36.2453 39.9666C36.2453 39.9666 31.0839 40.6804 26.501 37.1204V7.59085H32.847V18.1479C32.847 18.1479 32.3719 19.0987 33.7818 18.1479C33.7818 18.1479 35.6576 15.6586 39.0681 16.0125C39.0681 16.0125 46.1084 16.0125 45.9896 26.3326C45.9896 26.3326 47.7466 39.2589 36.2453 39.9666ZM34.065 22.4033V33.6681V34.385C34.065 34.385 40.1735 36.4035 40.2892 31.2373C40.4019 26.0803 40.2892 24.6587 40.2892 24.6587C40.2892 24.6587 40.5237 20.031 34.065 22.4033Z" fill="#030104"/>
<path d="M63.8242 36.8516C62.431 38.5443 60.5039 39.3906 58.043 39.3906C55.7773 39.3906 54.0456 38.7396 52.8477 37.4375C51.6628 36.1354 51.0573 34.2279 51.0312 31.7148V17.8672H56.6758V31.5195C56.6758 33.7201 57.6784 34.8203 59.6836 34.8203C61.5977 34.8203 62.9128 34.1562 63.6289 32.8281V17.8672H69.293V39H63.9805L63.8242 36.8516ZM85.4258 23.1602C84.6576 23.056 83.9805 23.0039 83.3945 23.0039C81.2591 23.0039 79.8594 23.7266 79.1953 25.1719V39H73.5508V17.8672H78.8828L79.0391 20.3867C80.1719 18.4466 81.7409 17.4766 83.7461 17.4766C84.3711 17.4766 84.957 17.5612 85.5039 17.7305L85.4258 23.1602ZM93.668 20.1719C95.1654 18.375 97.0469 17.4766 99.3125 17.4766C103.896 17.4766 106.22 20.1393 106.285 25.4648V39H100.641V25.6211C100.641 24.4102 100.38 23.5182 99.8594 22.9453C99.3385 22.3594 98.4727 22.0664 97.2617 22.0664C95.6081 22.0664 94.4102 22.7044 93.668 23.9805V39H88.0234V9H93.668V20.1719ZM122.789 39C122.529 38.4922 122.34 37.8607 122.223 37.1055C120.855 38.6289 119.078 39.3906 116.891 39.3906C114.82 39.3906 113.102 38.7917 111.734 37.5938C110.38 36.3958 109.703 34.8854 109.703 33.0625C109.703 30.8229 110.53 29.1042 112.184 27.9062C113.85 26.7083 116.253 26.1029 119.391 26.0898H121.988V24.8789C121.988 23.9023 121.734 23.1211 121.227 22.5352C120.732 21.9492 119.944 21.6562 118.863 21.6562C117.913 21.6562 117.164 21.8841 116.617 22.3398C116.083 22.7956 115.816 23.4206 115.816 24.2148H110.172C110.172 22.9909 110.549 21.8581 111.305 20.8164C112.06 19.7747 113.128 18.9609 114.508 18.375C115.888 17.776 117.438 17.4766 119.156 17.4766C121.76 17.4766 123.824 18.1341 125.348 19.4492C126.884 20.7513 127.652 22.5872 127.652 24.957V34.1172C127.665 36.1224 127.945 37.6393 128.492 38.668V39H122.789ZM118.121 35.0742C118.954 35.0742 119.723 34.8919 120.426 34.5273C121.129 34.1497 121.65 33.6484 121.988 33.0234V29.3906H119.879C117.053 29.3906 115.549 30.3672 115.367 32.3203L115.348 32.6523C115.348 33.3555 115.595 33.9349 116.09 34.3906C116.585 34.8464 117.262 35.0742 118.121 35.0742ZM137.184 17.8672L137.359 20.3086C138.87 18.4206 140.895 17.4766 143.434 17.4766C145.673 17.4766 147.34 18.1341 148.434 19.4492C149.527 20.7643 150.087 22.7305 150.113 25.3477V39H144.469V25.4844C144.469 24.2865 144.208 23.4206 143.688 22.8867C143.167 22.3398 142.301 22.0664 141.09 22.0664C139.501 22.0664 138.31 22.7435 137.516 24.0977V39H131.871V17.8672H137.184ZM167.066 36.8516C165.673 38.5443 163.746 39.3906 161.285 39.3906C159.02 39.3906 157.288 38.7396 156.09 37.4375C154.905 36.1354 154.299 34.2279 154.273 31.7148V17.8672H159.918V31.5195C159.918 33.7201 160.921 34.8203 162.926 34.8203C164.84 34.8203 166.155 34.1562 166.871 32.8281V17.8672H172.535V39H167.223L167.066 36.8516ZM175.914 28.2773C175.914 24.9831 176.65 22.3594 178.121 20.4062C179.605 18.4531 181.63 17.4766 184.195 17.4766C186.253 17.4766 187.952 18.2448 189.293 19.7812V9H194.957V39H189.859L189.586 36.7539C188.18 38.5117 186.37 39.3906 184.156 39.3906C181.669 39.3906 179.671 38.4141 178.16 36.4609C176.663 34.4948 175.914 31.7669 175.914 28.2773ZM181.559 28.6875C181.559 30.6667 181.904 32.1836 182.594 33.2383C183.284 34.293 184.286 34.8203 185.602 34.8203C187.346 34.8203 188.577 34.0846 189.293 32.6133V24.2734C188.59 22.8021 187.372 22.0664 185.641 22.0664C182.919 22.0664 181.559 24.2734 181.559 28.6875ZM198.453 28.2773C198.453 24.9831 199.189 22.3594 200.66 20.4062C202.145 18.4531 204.169 17.4766 206.734 17.4766C208.792 17.4766 210.491 18.2448 211.832 19.7812V9H217.496V39H212.398L212.125 36.7539C210.719 38.5117 208.909 39.3906 206.695 39.3906C204.208 39.3906 202.21 38.4141 200.699 36.4609C199.202 34.4948 198.453 31.7669 198.453 28.2773ZM204.098 28.6875C204.098 30.6667 204.443 32.1836 205.133 33.2383C205.823 34.293 206.826 34.8203 208.141 34.8203C209.885 34.8203 211.116 34.0846 211.832 32.6133V24.2734C211.129 22.8021 209.911 22.0664 208.18 22.0664C205.458 22.0664 204.098 24.2734 204.098 28.6875ZM227.828 39H222.164V17.8672H227.828V39ZM221.832 12.3984C221.832 11.5521 222.112 10.8555 222.672 10.3086C223.245 9.76172 224.02 9.48828 224.996 9.48828C225.96 9.48828 226.728 9.76172 227.301 10.3086C227.874 10.8555 228.16 11.5521 228.16 12.3984C228.16 13.2578 227.867 13.9609 227.281 14.5078C226.708 15.0547 225.947 15.3281 224.996 15.3281C224.046 15.3281 223.277 15.0547 222.691 14.5078C222.118 13.9609 221.832 13.2578 221.832 12.3984ZM237.691 17.8672L237.867 20.3086C239.378 18.4206 241.402 17.4766 243.941 17.4766C246.181 17.4766 247.848 18.1341 248.941 19.4492C250.035 20.7643 250.595 22.7305 250.621 25.3477V39H244.977V25.4844C244.977 24.2865 244.716 23.4206 244.195 22.8867C243.674 22.3398 242.809 22.0664 241.598 22.0664C240.009 22.0664 238.818 22.7435 238.023 24.0977V39H232.379V17.8672H237.691Z" fill="black"/>
</svg>
